<?xml version="1.0" encoding="UTF-8"?>
<svg id="Layer_1" data-name="Layer 1" xmlns="http://www.w3.org/2000/svg" viewBox="0 0 1920 1080">
  <defs>
    <style>
      .cls-1 {
        fill: #143840;
      }

      .cls-1, .cls-2 {
        stroke-width: 0px;
      }

      .cls-2 {
        fill: #ff4b31;
      }
    </style>
  </defs>
  <g>
    <polygon class="cls-1" points="261.31 471.52 261.31 608.47 287.81 608.47 287.81 552.37 349.76 552.37 349.76 528.8 287.81 528.8 287.81 494.9 353.07 494.9 353.07 471.52 280.79 471.52 261.31 471.52"/>
    <rect class="cls-1" x="385.6" y="471.53" width="26.5" height="136.96"/>
    <polygon class="cls-1" points="535.03 560.32 466.45 471.52 447.95 471.52 447.95 608.47 474.44 608.47 474.44 520.18 542.63 608.47 561.72 608.47 561.72 471.52 535.03 471.52 535.03 560.32"/>
    <path class="cls-1" d="m677.56,535.15c3.8-2.19,6.99-4.79,9.53-7.82,4.74-5.64,7.11-12.37,7.11-20.16,0-6.36-1.56-12.24-4.68-17.63-3.12-5.39-7.76-9.74-13.93-13.05-6.17-3.31-13.81-4.97-22.89-4.97h-55.33v136.96h56.11c9.74,0,18.02-1.79,24.84-5.36,6.82-3.57,12.01-8.31,15.59-14.22,3.56-5.91,5.36-12.5,5.36-19.77,0-9.23-2.76-17.12-8.28-23.67-3.53-4.19-8.01-7.62-13.43-10.31Zm-27.97-42.01c5.45,0,9.83,1.36,13.15,4.09,3.31,2.72,4.96,6.88,4.96,12.47s-1.65,9.55-4.96,12.27c-3.31,2.73-7.69,4.09-13.15,4.09h-25.91v-32.92h25.91Zm17.82,87.86c-3.57,3.9-8.54,5.85-14.9,5.85h-28.83v-39.35h28.83c4.28,0,7.95.87,11.01,2.63,3.05,1.76,5.36,4.12,6.91,7.11,1.56,3,2.34,6.3,2.34,9.93,0,5.33-1.79,9.94-5.36,13.84Z"/>
    <path class="cls-1" d="m842.36,489.74c-6.42-6.43-13.93-11.42-22.5-15-8.57-3.57-17.92-5.36-28.05-5.36s-19.29,1.79-27.86,5.36c-8.57,3.58-16.08,8.57-22.51,15-6.42,6.43-11.43,13.9-15,22.41-3.57,8.5-5.36,17.69-5.36,27.56s1.82,19.13,5.45,27.76c3.64,8.64,8.67,16.17,15.1,22.6,6.43,6.43,13.96,11.47,22.6,15.11,8.63,3.63,17.95,5.45,27.95,5.45s19.25-1.82,27.76-5.45c8.5-3.64,15.98-8.68,22.4-15.11,6.44-6.42,11.47-13.93,15.11-22.5,3.63-8.56,5.45-17.79,5.45-27.66s-1.82-19.09-5.45-27.66c-3.64-8.58-8.67-16.08-15.11-22.51Zm-12.27,74.13c-3.7,6.88-8.8,12.27-15.29,16.17-6.5,3.89-14.16,5.84-22.99,5.84-6.37,0-12.25-1.1-17.63-3.31-5.39-2.2-10-5.32-13.83-9.35-3.84-4.02-6.82-8.9-8.96-14.61-2.14-5.71-3.22-12.01-3.22-18.9,0-9.09,1.85-17.07,5.55-23.96s8.83-12.24,15.39-16.07c6.56-3.84,14.13-5.75,22.7-5.75,6.62,0,12.6,1.1,17.92,3.31,5.33,2.21,9.93,5.36,13.83,9.44,3.9,4.09,6.88,8.93,8.96,14.52,2.08,5.59,3.12,11.76,3.12,18.5,0,9.23-1.85,17.29-5.55,24.16Z"/>
    <path class="cls-1" d="m974.55,556.46c0,5.98-1.27,11.17-3.81,15.58-2.53,4.42-5.94,7.82-10.23,10.23-4.28,2.41-9.22,3.61-14.8,3.61s-10.42-1.2-14.9-3.61c-4.49-2.41-7.99-5.81-10.52-10.23-2.53-4.41-3.8-9.68-3.8-15.78v-84.74h-26.49v83.96c0,10.52,2.4,19.93,7.21,28.25,4.8,8.31,11.39,14.84,19.77,19.58,8.37,4.74,17.95,7.11,28.73,7.11s20.49-2.37,28.74-7.11c8.25-4.74,14.77-11.23,19.58-19.48,4.8-8.25,7.21-17.63,7.21-28.15v-84.16h-26.69v84.94Z"/>
    <path class="cls-1" d="m1111.9,546.24c6.75-3.31,11.98-7.93,15.68-13.84,3.7-5.91,5.55-12.89,5.55-20.94s-1.85-14.68-5.55-20.65c-3.71-5.98-8.9-10.68-15.59-14.12-6.69-3.44-14.45-5.17-23.28-5.17h-53.57v136.96h26.49v-57.27h4.6l43.72,57.27h32.14l-45.81-57.77c5.73-.71,10.95-2.18,15.62-4.47Zm-50.27-53.09h24.74c6.49,0,11.52,1.79,15.1,5.36,3.57,3.57,5.36,8.02,5.36,13.34,0,5.85-1.79,10.42-5.36,13.74-3.58,3.31-8.61,4.96-15.1,4.96h-24.74v-37.4Z"/>
    <polygon class="cls-1" points="1251.97 560.32 1183.39 471.52 1164.88 471.52 1164.88 608.47 1191.38 608.47 1191.38 520.18 1259.57 608.47 1278.66 608.47 1278.66 471.52 1251.97 471.52 1251.97 560.32"/>
    <polygon class="cls-1" points="1340.81 585.1 1340.81 549.84 1402.76 549.84 1402.76 527.24 1340.81 527.24 1340.81 494.9 1408.6 494.9 1408.6 471.52 1333.8 471.52 1314.32 471.52 1314.32 608.47 1340.81 608.47 1409.59 608.47 1409.59 585.1 1340.81 585.1"/>
  </g>
  <rect class="cls-2" x="1500.31" y="472" width="18.55" height="136.33"/>
  <rect class="cls-2" x="1537.13" y="472.02" width="91.56" height="17.2"/>
  <rect class="cls-2" x="1537.13" y="506.24" width="91.56" height="17.16"/>
  <rect class="cls-2" x="1537.13" y="540.42" width="91.56" height="17.21"/>
</svg>